# xmcd
#
# Track frame offsets: 
#        150
#        14840
#        36130
#        46995
#        58110
#        75036
#        96718
#        120531
#        131715
#        146018
#        163755
#        177521
#        198644
#        209327
#        222968
#
# Disc length: 3164 seconds
#
# Revision: 0
# Processed by: cddbd v1.5.2PL0 Copyright (c) Steve Scherf et al.
# Submitted via: ExactAudioCopyFreeDBPlugin 1.0
#
DISCID=e40c5a0f
DTITLE=Emmanuel Gospel choir - There's A Reason
DYEAR=1900
DGENRE=
TTITLE0=Hallelujah, Jesus is born
TTITLE1=A King is coming to town
TTITLE2=Rise up shepherd and follow
TTITLE3=There's a light shining in Bethlehem
TTITLE4=Sing joy!
TTITLE5=There's a reason
TTITLE6=This little light of mine
TTITLE7=Precious Lord
TTITLE8=Sometimes I feel like a motherless child
TTITLE9=Oh happy day!
TTITLE10=Psalm 107
TTITLE11=Closer still
TTITLE12=Twelve Gates
TTITLE13=He's all over me
TTITLE14=Be strong and courageous
EXTD=
EXTT0=
EXTT1=
EXTT2=
EXTT3=
EXTT4=
EXTT5=
EXTT6=
EXTT7=
EXTT8=
EXTT9=
EXTT10=
EXTT11=
EXTT12=
EXTT13=
EXTT14=
PLAYORDER=
